<svg width="92" height="90" viewBox="0 0 92 90" fill="none" xmlns="http://www.w3.org/2000/svg">
<path d="M27.8188 47.0303H66.0289C73.5489 47.0303 79.6488 53.1303 79.6488 60.6503V73.2003H14.1989V60.6503C14.1989 53.1203 20.2988 47.0303 27.8188 47.0303Z" fill="white"/>
<path d="M84.7789 83.46H9.06885C6.23885 83.46 3.93884 81.16 3.93884 78.33V64.11C3.93884 61.28 6.23885 58.98 9.06885 58.98C11.8988 58.98 14.1989 61.28 14.1989 64.11V73.19H79.6488V64.11C79.6488 61.28 81.9489 58.98 84.7888 58.98C87.6189 58.98 89.9189 61.28 89.9189 64.11V78.32C89.9089 81.16 87.6189 83.46 84.7789 83.46Z" fill="#F5C58A"/>
<path d="M14.6589 83.46L10.9689 88.59H14.6589L20.4489 83.46H14.6589Z" fill="white"/>
<path d="M79.1888 83.46L82.8788 88.59H79.1888L73.3988 83.46H79.1888Z" fill="white"/>
<path d="M13.5988 20.7197H4.52876L2.09875 34.3197H16.0388L13.5988 20.7197Z" fill="white"/>
<path d="M55.0588 12.77H39.9188V27.91H55.0588V12.77Z" fill="#F5C58A"/>
<path d="M79.6489 1.16016H64.5089V16.3002H79.6489V1.16016Z" fill="white"/>
<path d="M32.6389 48.1701H66.0289C71.0189 48.1701 75.5289 51.1401 77.4889 55.7201C77.7389 56.3001 78.4089 56.5701 78.9989 56.3201C79.5789 56.0701 79.8489 55.4001 79.5989 54.8101C77.2689 49.3801 71.9289 45.8701 66.0289 45.8701H32.6389C32.0089 45.8701 31.4889 46.3801 31.4889 47.0201C31.4989 47.6601 32.0089 48.1701 32.6389 48.1701Z" fill="#333231"/>
<path d="M84.779 57.8297C81.319 57.8297 78.509 60.6397 78.499 64.1097V72.0497H48.069V56.8297C48.069 56.1997 47.559 55.6797 46.919 55.6797C46.279 55.6797 45.769 56.1897 45.769 56.8297V72.0497H23.199C22.569 72.0497 22.049 72.5597 22.049 73.1997C22.049 73.8297 22.559 74.3497 23.199 74.3497H79.639C80.269 74.3497 80.789 73.8397 80.789 73.1997V64.1197C80.859 61.9197 82.699 60.1897 84.899 60.2497C87.009 60.3097 88.699 62.0097 88.769 64.1197V78.3297C88.769 80.5297 86.979 82.3197 84.779 82.3197H69.749C69.119 82.3197 68.599 82.8297 68.599 83.4697C68.599 84.1097 69.109 84.6197 69.749 84.6197H72.959L78.429 89.4597C78.639 89.6497 78.909 89.7497 79.1889 89.7497H82.869C83.499 89.7497 84.019 89.2397 84.019 88.5997C84.019 88.3597 83.949 88.1297 83.809 87.9297L81.429 84.6097H84.779C88.249 84.6097 91.059 81.7997 91.059 78.3297V64.1197C91.049 60.6497 88.239 57.8397 84.779 57.8297ZM80.639 87.4497H79.619L76.409 84.6097H78.589L80.639 87.4497Z" fill="#333231"/>
<path d="M18.5088 72.0498C17.8788 72.0498 17.3588 72.5598 17.3588 73.1998C17.3588 73.8298 17.8688 74.3498 18.5088 74.3498H19.0788C19.7088 74.3498 20.2288 73.8398 20.2288 73.1998C20.2288 72.5698 19.7188 72.0498 19.0788 72.0498H18.5088Z" fill="#333231"/>
<path d="M60.8987 82.3099H9.0687C6.8687 82.3099 5.07869 80.5199 5.07869 78.3199V64.0999C5.02869 61.8999 6.7787 60.0799 8.9787 60.0299C11.1787 59.9799 12.9987 61.7299 13.0487 63.9299C13.0487 63.9899 13.0487 64.0399 13.0487 64.0999V73.1799C13.0487 73.8099 13.5587 74.3299 14.1987 74.3299C14.8287 74.3299 15.3487 73.8199 15.3487 73.1799V60.6299C15.3587 53.7399 20.9387 48.1599 27.8287 48.1599C28.4587 48.1599 28.9787 47.6499 28.9787 47.0099C28.9787 46.3799 28.4687 45.8599 27.8287 45.8599C20.1887 45.8699 13.8187 51.6999 13.1287 59.3099C12.2987 58.5999 11.2987 58.1299 10.2187 57.9299V38.2599C10.2187 37.6299 9.70869 37.1099 9.0687 37.1099C8.43869 37.1099 7.9187 37.6199 7.9187 38.2599V57.9299C4.9487 58.4799 2.7887 61.0799 2.7887 64.0999V78.3099C2.7887 81.7799 5.5987 84.5899 9.0687 84.5899H12.4187L10.0387 87.9099C9.6687 88.4199 9.78869 89.1399 10.2987 89.5099C10.4887 89.6499 10.7287 89.7199 10.9687 89.7199H14.6487C14.9287 89.7199 15.1987 89.6199 15.4087 89.4299L17.6287 87.4699C18.0987 87.0499 18.1387 86.3199 17.7087 85.8499C17.2887 85.3899 16.5787 85.3399 16.1087 85.7499L14.2187 87.4299H13.1987L15.2387 84.5899H60.8987C61.5287 84.5899 62.0487 84.0799 62.0487 83.4399C62.0387 82.8299 61.5287 82.3099 60.8987 82.3099Z" fill="#333231"/>
<path d="M65.1689 82.3101H64.6289C63.9989 82.3101 63.4789 82.8201 63.4789 83.4601C63.4789 84.0901 63.9889 84.6101 64.6289 84.6101H65.1689C65.7989 84.6101 66.3189 84.1001 66.3189 83.4601C66.3189 82.8301 65.8089 82.3101 65.1689 82.3101Z" fill="#333231"/>
<path d="M45.7789 52.0001V52.5801C45.7789 53.2101 46.2889 53.7301 46.9289 53.7301C47.5689 53.7301 48.0789 53.2201 48.0789 52.5801V52.0001C48.0789 51.3701 47.5689 50.8501 46.9289 50.8501C46.2889 50.8501 45.7789 51.3701 45.7789 52.0001Z" fill="#333231"/>
<path d="M16.9189 35.0598C17.1389 34.7998 17.2289 34.4598 17.1689 34.1198L14.7289 20.5098C14.6289 19.9598 14.1589 19.5698 13.5989 19.5698H4.52887C3.97887 19.5698 3.49887 19.9698 3.39887 20.5098L0.958864 34.1198C0.848864 34.7398 1.25887 35.3398 1.88887 35.4498C1.95887 35.4598 2.01887 35.4698 2.08887 35.4698H16.0389C16.3789 35.4698 16.6989 35.3198 16.9189 35.0598ZM3.46886 33.1798L5.49887 21.8598H12.6489L14.6789 33.1798H3.46886Z" fill="#333231"/>
<path d="M39.9189 29.0501H55.0589C55.6889 29.0501 56.2089 28.5401 56.2089 27.9001V17.2101C56.2089 16.5801 55.6989 16.0601 55.0589 16.0601C54.4289 16.0601 53.9089 16.5701 53.9089 17.2101V26.7501H41.0589V13.9001H55.0489C55.6789 13.9001 56.1989 13.3901 56.1989 12.7501C56.1989 12.1101 55.6889 11.6001 55.0489 11.6001H39.9089C39.2789 11.6001 38.7589 12.1101 38.7589 12.7501V27.8901C38.7789 28.5401 39.2889 29.0501 39.9189 29.0501Z" fill="#333231"/>
<path d="M64.5188 17.44H79.6588C80.2888 17.44 80.8088 16.93 80.8088 16.29V1.15C80.8088 0.520002 80.2988 0 79.6588 0H64.5188C63.8888 0 63.3688 0.510002 63.3688 1.15V16.29C63.3688 16.93 63.8788 17.44 64.5188 17.44ZM65.6588 2.3H78.4988V15.15H65.6488L65.6588 2.3Z" fill="#333231"/>
</svg>
