<svg width="112" height="74" viewBox="0 0 112 74" fill="none" xmlns="http://www.w3.org/2000/svg">
<path d="M109.74 7.90967H2.27991V72.5797H109.74V7.90967Z" fill="#F5C58A"/>
<path d="M100.96 13.1899H11.0602V67.2999H100.96V13.1899Z" fill="white"/>
<path d="M25.9498 67.2998L43.4698 29.7798L60.9898 67.2998H25.9498Z" fill="#F5C58A"/>
<path d="M65.7501 19.5898L52.2301 48.5398L60.9901 67.2998H88.0301L65.7501 19.5898Z" fill="#F5C58A"/>
<path d="M28.2899 29.7699C30.6647 29.7699 32.5899 27.8447 32.5899 25.4699C32.5899 23.0951 30.6647 21.1699 28.2899 21.1699C25.9151 21.1699 23.9899 23.0951 23.9899 25.4699C23.9899 27.8447 25.9151 29.7699 28.2899 29.7699Z" fill="#F5C58A"/>
<path d="M109.74 14.5898C110.51 14.5898 111.14 13.9598 111.14 13.1898V7.90978C111.14 7.87978 111.12 7.84978 111.12 7.80978C111.1 7.61978 111.05 7.43978 110.97 7.26978C110.96 7.23978 110.96 7.20978 110.94 7.17978C110.91 7.13978 110.87 7.09978 110.83 7.05978C110.77 6.97978 110.71 6.90978 110.63 6.84978C110.49 6.73978 110.34 6.64978 110.17 6.58978C110.08 6.55978 109.99 6.53978 109.9 6.53978C109.85 6.52978 109.79 6.50978 109.73 6.50978H101.63C101.81 6.02978 101.91 5.52978 101.91 5.00978C101.95 2.63978 100.05 0.67978 97.68 0.63978C95.31 0.59978 93.35 2.49978 93.31 4.86978C93.31 4.91978 93.31 4.95978 93.31 5.00978C93.31 5.51978 93.41 6.02978 93.59 6.50978H18.4C18.58 6.02978 18.68 5.52978 18.68 5.00978C18.72 2.63978 16.82 0.67978 14.45 0.63978C12.08 0.59978 10.12 2.49978 10.08 4.86978C10.08 4.91978 10.08 4.95978 10.08 5.00978C10.08 5.51978 10.18 6.02978 10.36 6.50978H2.26001C2.21001 6.51978 2.15001 6.52978 2.10001 6.53978C1.73001 6.56978 1.38998 6.76978 1.16998 7.06978C1.12998 7.10978 1.09 7.14978 1.06 7.18978C1.04 7.21978 1.04 7.24978 1.03 7.27978C0.949999 7.44978 0.900005 7.62978 0.880005 7.81978C0.880005 7.84978 0.859985 7.87978 0.859985 7.91978V72.5998C0.859985 72.6298 0.880005 72.6598 0.880005 72.6998C0.900005 72.8898 0.949999 73.0698 1.03 73.2398C1.04 73.2698 1.04 73.2998 1.06 73.3298C1.11 73.4098 1.16999 73.4898 1.23999 73.5598C1.24999 73.5698 1.26 73.5898 1.28 73.5998C1.39 73.7098 1.52998 73.7998 1.66998 73.8598C1.69998 73.8798 1.74 73.8898 1.78 73.8998C1.93 73.9598 2.10001 73.9898 2.26001 73.9998H109.72C109.88 73.9998 110.05 73.9598 110.2 73.8998C110.24 73.8898 110.27 73.8698 110.31 73.8598C110.45 73.7998 110.59 73.7098 110.7 73.5998C110.71 73.5898 110.72 73.5698 110.74 73.5598C110.81 73.4898 110.87 73.4098 110.92 73.3298C110.94 73.2998 110.94 73.2698 110.95 73.2398C111.03 73.0698 111.08 72.8898 111.1 72.6998C111.1 72.6698 111.12 72.6398 111.12 72.5998V19.5898C111.12 18.8198 110.49 18.1898 109.72 18.1898C108.95 18.1898 108.32 18.8198 108.32 19.5898V70.0998L102.34 66.4998V63.0398C102.34 62.2698 101.71 61.6398 100.94 61.6398C100.17 61.6398 99.54 62.2698 99.54 63.0398V65.8898H88.9L67 18.9898C66.67 18.2898 65.84 17.9798 65.14 18.3098C64.84 18.4498 64.6 18.6898 64.46 18.9898L53.72 41.9898C53.39 42.6898 53.7 43.5298 54.4 43.8498C55.1 44.1798 55.94 43.8698 56.26 43.1698L65.73 22.8798L85.8 65.8698H61.89L44.75 29.1598C44.42 28.4598 43.59 28.1498 42.89 28.4798C42.59 28.6198 42.35 28.8598 42.21 29.1598L27.19 61.3298C26.86 62.0298 27.17 62.8698 27.87 63.1898C28.57 63.5098 29.41 63.2098 29.73 62.5098L43.48 33.0498L58.8 65.8598H53.91C53.14 65.8598 52.51 66.4898 52.51 67.2598C52.51 68.0298 53.14 68.6598 53.91 68.6598H100.57L104.69 71.1398H7.32999L11.45 68.6598H47.46C48.23 68.6598 48.86 68.0298 48.86 67.2598C48.86 66.4898 48.23 65.8598 47.46 65.8598H12.46V14.5598H17.29C18.06 14.5598 18.69 13.9298 18.69 13.1598C18.69 12.3898 18.06 11.7598 17.29 11.7598H11.45L7.32999 9.27978H104.7L100.58 11.7598H29.48C28.71 11.7598 28.08 12.3898 28.08 13.1598C28.08 13.9298 28.71 14.5598 29.48 14.5598H99.56V57.2098C99.56 57.9798 100.19 58.6098 100.96 58.6098C101.73 58.6098 102.36 57.9798 102.36 57.2098V13.9798L108.34 10.3798V13.1798C108.33 13.9598 108.96 14.5898 109.74 14.5898C109.73 14.5898 109.73 14.5898 109.74 14.5898ZM96.13 5.00978C96.13 4.17978 96.8 3.50978 97.63 3.50978C98.46 3.50978 99.13 4.17978 99.13 5.00978C99.13 5.83978 98.46 6.50978 97.63 6.50978C96.79 6.49978 96.13 5.82978 96.13 5.00978ZM12.9 5.00978C12.9 4.17978 13.57 3.51978 14.4 3.51978C15.23 3.51978 15.89 4.18978 15.89 5.01978C15.89 5.83978 15.22 6.50978 14.39 6.50978C13.57 6.50978 12.9 5.83978 12.9 5.00978ZM9.66 66.4998L3.67999 70.0998V10.3798L9.66 13.9798V66.4998Z" fill="#333231"/>
<path d="M24.6997 14.5896C25.4697 14.5896 26.0997 13.9596 26.0997 13.1896C26.0997 12.4196 25.4697 11.7896 24.6997 11.7896H23.9797C23.2097 11.7896 22.5797 12.4196 22.5797 13.1896C22.5797 13.9596 23.2097 14.5896 23.9797 14.5896H24.6997Z" fill="#321F10"/>
<path d="M28.29 31.18C31.44 31.18 34 28.63 34 25.48C34 22.33 31.45 19.77 28.3 19.77C25.15 19.77 22.59 22.32 22.59 25.47C22.6 28.62 25.14 31.17 28.29 31.18ZM28.29 22.57C29.89 22.57 31.19 23.86 31.2 25.47C31.2 27.07 29.91 28.37 28.3 28.38C26.69 28.39 25.4 27.09 25.39 25.48C25.39 25.48 25.39 25.48 25.39 25.47C25.4 23.87 26.69 22.58 28.29 22.57Z" fill="#333231"/>
</svg>
