<svg width="76" height="75" viewBox="0 0 76 75" fill="none" xmlns="http://www.w3.org/2000/svg">
<path d="M4.20096 3.77115C0.830962 7.14115 0.830962 12.6112 4.20096 15.9812L54.271 66.0512L66.481 53.8412L16.411 3.77115C13.041 0.401152 7.57096 0.401152 4.20096 3.77115Z" fill="#F5C58A"/>
<path d="M10.631 22.4211L4.19101 15.9811C0.83101 12.5911 0.85101 7.13111 4.24101 3.77111C7.61101 0.431113 13.041 0.431113 16.411 3.77111L22.851 10.2111L10.631 22.4211Z" fill="#F5C58A"/>
<path d="M22.846 10.2137L10.6344 22.4253L15.4922 27.2831L27.7038 15.0715L22.846 10.2137Z" fill="white"/>
<path d="M54.2709 66.051C54.2709 66.051 29.9709 33.201 60.3809 59.941C60.3809 59.941 21.6709 16.951 66.4909 53.831L74.4309 73.981L54.2709 66.051Z" fill="white"/>
<path d="M66.2111 70.761C67.0711 68.461 68.8811 66.651 71.1811 65.791L74.4111 74.001L66.2111 70.761Z" fill="#F5C58A"/>
<path d="M33.071 21.8513C33.461 22.2413 34.101 22.2413 34.491 21.8513C34.881 21.4613 34.881 20.8213 34.491 20.4313L33.991 19.9313C33.581 19.5513 32.941 19.5813 32.571 19.9913C32.221 20.3713 32.221 20.9613 32.571 21.3513L33.071 21.8513Z" fill="#333231"/>
<path d="M46.0709 50.5013C46.9609 50.7213 50.0109 52.1813 59.7009 60.7013C60.1209 61.0713 60.7509 61.0213 61.1209 60.6113C61.4609 60.2313 61.4509 59.6513 61.1109 59.2813C61.0509 59.2113 55.0209 52.5213 50.5509 46.7613C50.2109 46.3213 49.5809 46.2313 49.1409 46.5713C48.7009 46.9113 48.6109 47.5413 48.9509 47.9813C48.9609 47.9913 48.9609 47.9913 48.9709 48.0013C49.9209 49.2213 50.9309 50.4813 51.9509 51.7013C46.7609 47.8713 45.4309 48.1413 44.6109 48.8913C43.5909 49.8213 43.7109 51.7513 47.4609 57.8313L12.0509 22.4313L22.8509 11.6313L26.2809 15.0713L17.3609 23.9913C16.9709 24.3813 16.9709 25.0213 17.3609 25.4113C17.7509 25.8013 18.3909 25.8013 18.7809 25.4113L27.7009 16.4913L29.6409 18.4313C30.0309 18.8213 30.6709 18.8213 31.0609 18.4313C31.4509 18.0413 31.4509 17.4013 31.0609 17.0113L23.5509 9.50129L17.1109 3.06129C13.3809 -0.738708 7.28087 -0.808709 3.47087 2.92129C-0.339127 6.65129 -0.399127 12.7513 3.33087 16.5613C3.38087 16.6113 3.42087 16.6513 3.47087 16.7013C3.86087 17.1013 4.49087 17.1113 4.89087 16.7213C5.29087 16.3313 5.30087 15.7013 4.91087 15.3013C4.90087 15.2913 4.89087 15.2813 4.89087 15.2813C1.91087 12.3013 1.91087 7.47129 4.89087 4.49129C7.87087 1.51129 12.7009 1.51129 15.6809 4.49129L21.4109 10.2213L10.6309 21.0013L7.53087 17.9013C7.14087 17.5113 6.50087 17.5113 6.11087 17.9013C5.72087 18.2913 5.72087 18.9313 6.11087 19.3213L9.92087 23.1313L53.1409 66.3513C53.2009 66.4013 53.2609 66.4413 53.3209 66.4713L53.4509 66.6513C53.7909 67.0913 54.4209 67.1813 54.8609 66.8413C55.2909 66.5113 55.3809 65.9013 55.0709 65.4613C50.7309 59.5813 46.2909 52.4713 46.0709 50.5013Z" fill="#333231"/>
<path d="M75.3508 73.6216L67.4108 53.4716C67.4108 53.4616 67.4008 53.4616 67.4008 53.4516C67.3508 53.3516 67.2908 53.2516 67.2108 53.1716C67.2008 53.1616 67.2008 53.1416 67.1908 53.1316L37.1408 23.0816C36.7508 22.6916 36.1108 22.6916 35.7208 23.0816C35.3308 23.4716 35.3308 24.1116 35.7208 24.5016L53.8608 42.6416C45.8608 36.8316 44.9808 37.6416 44.3008 38.2916C43.3708 39.1716 43.5608 40.6616 47.2408 45.6916C47.5708 46.1416 48.2008 46.2416 48.6508 45.9116C49.1008 45.5816 49.2008 44.9516 48.8708 44.5016C47.7908 43.1216 46.8508 41.6416 46.0608 40.0716C47.6108 40.6916 52.2108 43.4016 65.6508 54.4516L69.9008 65.2516C68.0808 66.1716 66.6008 67.6416 65.6908 69.4616L58.1608 66.4916C57.6408 66.2816 57.0608 66.5316 56.8508 67.0416C56.6408 67.5616 56.8908 68.1416 57.4008 68.3516C57.4108 68.3516 57.4108 68.3616 57.4208 68.3616L74.0508 74.9316C74.5708 75.1316 75.1508 74.8816 75.3608 74.3616C75.4508 74.1216 75.4508 73.8616 75.3508 73.6216ZM67.5708 70.2116C68.2608 68.9016 69.3308 67.8316 70.6408 67.1416L72.6308 72.2016L67.5708 70.2116Z" fill="#333231"/>
</svg>
