<svg width="138" height="24" viewBox="0 0 138 24" fill="none" xmlns="http://www.w3.org/2000/svg">
<path d="M4.96322 6.56456C6.46826 6.56456 7.68511 5.44378 7.68511 4.0348C7.68511 2.62582 6.46826 1.47302 4.96322 1.47302C3.49019 1.47302 2.27335 2.62582 2.27335 4.0348C2.27335 5.44378 3.49019 6.56456 4.96322 6.56456ZM7.17275 19.6937V8.00556L0.576172 10.055V10.3432C2.20931 10.3432 2.88177 10.8235 2.88177 12.4246V19.7577C2.88177 21.3268 2.27335 22.3195 0.640216 22.3195V22.7358H9.38228V22.3195C7.78117 22.3195 7.17275 21.3268 7.17275 19.6937Z" fill="#161616"/>
<path d="M24.6649 19.6616V0L18.0363 2.04942V2.33762C19.6694 2.33762 20.3419 2.84998 20.3419 4.45109V9.44656C20.0537 8.87016 19.2211 7.97353 17.684 7.97353C14.4498 7.97353 10.8633 11.0797 10.8633 16.3954C10.8633 20.0139 13.0728 23.024 16.3391 23.024C18.3245 23.024 19.8295 21.615 20.3419 20.5903V20.6864L20.47 22.7038H26.8744V22.2875C25.2413 22.2875 24.6649 21.2948 24.6649 19.6616ZM18.4206 21.1026C16.4672 21.1026 15.2504 18.3487 15.2504 14.6662C15.2504 11.8482 16.4032 8.74207 18.1644 8.74207C19.3172 8.74207 20.3419 10.3432 20.3419 12.2005V19.2774C20.2138 19.8218 19.7014 21.1026 18.4206 21.1026Z" fill="#161616"/>
<path d="M56.6651 10.4392C56.6651 10.4392 49.4281 6.98084 49.3 6.9168C48.1472 6.37242 46.7382 5.44378 46.7382 3.55447C46.7382 2.14549 47.7949 1.08875 49.6522 1.08875C51.4775 1.08875 52.6943 2.04942 53.8151 3.26627C54.6797 4.22693 55.5123 5.21962 56.4409 6.08422C57.0173 6.66062 57.8819 7.205 58.9067 7.39713H59.0347C58.3943 5.21962 57.6578 2.49773 57.914 0.2882H57.6898C56.7932 0.736511 56.4089 1.05673 55.1601 1.05673C53.3988 1.05673 51.8618 0.2882 49.6843 0.2882C46.6101 0.2882 43.8882 2.91402 43.8882 6.14827C43.8882 9.2224 46.3539 11.0797 47.923 11.8162C48.0831 11.8802 53.9432 14.6982 54.2955 14.8583C55.032 15.2106 57.4657 16.1712 57.4657 18.669C57.4657 20.9425 55.6404 22.1594 53.687 22.1594C50.1646 22.1594 49.268 15.0184 42.4793 15.0184C43.6321 17.4201 43.7601 20.3021 43.504 23.056H43.8242C44.6568 22.2234 45.6495 21.7111 46.6742 21.7111C48.5635 21.7111 50.741 23.056 53.623 23.056C57.1454 23.056 60.4117 20.3341 60.4117 16.6195C60.4117 13.8656 58.4263 11.2718 56.6651 10.4392Z" fill="#161616"/>
<path d="M72.1483 20.0139C71.9562 20.4942 71.5719 21.4229 70.4832 21.4229C69.5866 21.4229 68.8821 20.8144 68.8821 19.5336V8.90218H71.8601V8.29376H68.8821V2.882H68.4338C67.6332 5.05951 65.2315 8.16567 62.1254 8.29376V8.90218H64.5911V19.5336C64.5911 21.615 65.7439 23.024 68.4978 23.024C70.6113 23.024 72.1163 21.583 72.6287 20.0139H72.1483Z" fill="#161616"/>
<path d="M90.0012 19.7897V8.00556L83.4047 10.023V10.3432C85.0378 10.3432 85.7103 10.8235 85.7103 12.4246L85.6782 20.11L85.326 20.3021C84.6855 20.6543 83.7889 21.3268 82.7642 21.3268C81.4193 21.3268 80.971 20.3661 80.971 18.8931V8.00556L74.3744 10.023V10.3432C76.0075 10.3432 76.68 10.8235 76.68 12.4246V19.9819C76.68 21.647 77.7367 23.024 79.7861 23.024C81.5474 23.024 83.1485 22.2234 85.6782 20.8465V22.7038H92.0186V22.2875C90.3855 22.2875 90.0012 21.4229 90.0012 19.7897Z" fill="#161616"/>
<path d="M107.785 19.6616V0L101.156 2.04942V2.33762C102.79 2.33762 103.462 2.84998 103.462 4.45109V9.44656C103.174 8.87016 102.341 7.97353 100.804 7.97353C97.57 7.97353 93.9835 11.0797 93.9835 16.3954C93.9835 20.0139 96.193 23.024 99.4593 23.024C101.445 23.024 102.95 21.615 103.462 20.5903V20.6864L103.59 22.7038H109.995V22.2875C108.361 22.2875 107.785 21.2948 107.785 19.6616ZM101.541 21.1026C99.5874 21.1026 98.3705 18.3487 98.3705 14.6662C98.3705 11.8482 99.5233 8.74207 101.285 8.74207C102.437 8.74207 103.462 10.3432 103.462 12.2005V19.2774C103.334 19.8218 102.822 21.1026 101.541 21.1026Z" fill="#161616"/>
<path d="M116.234 6.56456C117.739 6.56456 118.956 5.44378 118.956 4.0348C118.956 2.62582 117.739 1.47302 116.234 1.47302C114.761 1.47302 113.544 2.62582 113.544 4.0348C113.544 5.44378 114.761 6.56456 116.234 6.56456ZM118.444 19.6937V8.00556L111.847 10.055V10.3432C113.48 10.3432 114.153 10.8235 114.153 12.4246V19.7577C114.153 21.3268 113.544 22.3195 111.911 22.3195V22.7358H120.653V22.3195C119.052 22.3195 118.444 21.3268 118.444 19.6937Z" fill="#161616"/>
<path d="M130.07 7.97353C126.003 7.97353 122.32 10.8235 122.32 15.4988C122.32 20.206 126.003 23.024 130.07 23.024C134.169 23.024 137.851 20.206 137.851 15.4988C137.851 10.8235 134.169 7.97353 130.07 7.97353ZM130.07 22.2875C128.052 22.2875 126.932 19.6296 126.932 15.4988C126.932 11.3038 128.052 8.71004 130.07 8.71004C132.087 8.71004 133.208 11.3038 133.208 15.4988C133.208 19.6937 132.087 22.2875 130.07 22.2875Z" fill="#161616"/>
<circle cx="5" cy="3.89551" r="3" fill="#D3A265"/>
</svg>
